<svg viewBox="0 -7 512.00028 512" xmlns="http://www.w3.org/2000/svg"><path d="m511.730469 63.980469-8.242188-48.035157c-.90625-5.265624-3.992187-9.949218-8.464843-12.855468-4.472657-2.902344-10-3.816406-15.164063-2.503906l-58.417969 14.777343c-6.144531 1.554688-10.890625 6.023438-13.09375 11.597657l-98.917968 15.265624c-2.394532.367188-4.789063-.636718-6.242188-2.625-14.25-19.511718-36.0625-28.359374-59.835938-24.277343-7.289062 1.246093-14.257812 3.628906-20.707031 7.066406-7.808593 4.152344-17.019531 3.730469-24.050781-1.101563-20.191406-13.875-44.585938-19.242187-68.691406-15.113281-25.515625 4.371094-44.964844 18.019531-56.242188 39.46875-10.109375 19.21875-13.042968 43.4375-8.484375 70.046875 4.632813 27.023438 16.035157 49.949219 31.953125 64.925782h-37.324218c-5.507813 0-10.503907 2.238281-14.121094 5.859374-3.621094 3.617188-5.863282 8.613282-5.863282 14.125v33.164063c-10.582031 9.871094-35.105468 40.671875-33.015624 112.753906.15625 5.410157 4.585937 9.710938 9.996093 9.710938h23.019531v122.136719h-29.820312c-5.523438 0-10 4.480468-10 10 0 5.523437 4.476562 10 10 10h39.761719c.019531 0 .039062.003906.058593.003906h405.582032c.019531 0 .039062-.003906.058594-.003906h39.765624c5.523438 0 10-4.476563 10-10 0-5.519532-4.476562-10-10-10h-29.824218v-122.136719h23.019531c5.410156 0 9.839844-4.300781 9.996094-9.710938 2.089843-72.085937-22.433594-102.882812-33.015625-112.753906v-33.167969c0-11.015625-8.960938-19.980468-19.980469-19.980468h-47.902344v-91.402344l20.820313-3.929688c3.570312 4.109375 8.824218 6.660156 14.496094 6.660156.566406 0 1.140624-.023437 1.714843-.078124l60.019531-5.527344c5.304688-.492188 10.207032-3.191406 13.457032-7.417969 3.246094-4.226563 4.597656-9.667969 3.703125-14.941406zm-207.832031 272.25c3.628906-35.847657-3.183594-69.734375-7.945313-87.828125h53.1875c10.96875 36.179687 11.453125 66.203125 9.988281 87.828125zm141.503906-135.613281v27.5625h-27.863282v-27.5625zm-161.609375 135.566406h-55.578125c-4.160156-37.019532 4.421875-73.089844 8.609375-87.78125h38.363281c4.199219 14.671875 12.785156 50.667968 8.605469 87.78125zm-64.253907-108.003906h-54v-27.5625h54zm53 0h-33v-27.5625h33zm-127-27.5625v27.5625h-31.539062v-27.5625zm252 27.5625h-31v-27.5625h31zm-51 0h-54v-27.5625h54zm-252.539062-27.5625v27.5625h-34.183594l-.011718-27.558594zm-5.335938 134.882812c.019532-.65625.042969-1.300781.066407-1.949219.035156-1.0625.074219-2.117187.117187-3.15625.027344-.660156.058594-1.316406.085938-1.96875.046875-.996093.097656-1.984375.152344-2.957031.035156-.640625.066406-1.28125.105468-1.910156.058594-.984375.121094-1.949219.1875-2.910156.039063-.574219.074219-1.15625.117188-1.722657.074218-1.070312.160156-2.117187.246094-3.15625.035156-.425781.066406-.863281.101562-1.285156.125-1.4375.253906-2.851563.394531-4.234375.03125-.308594.066407-.601562.097657-.910156.113281-1.070313.226562-2.132813.34375-3.167969.058593-.492187.121093-.96875.179687-1.453125.101563-.828125.203125-1.652344.308594-2.460938.070312-.519531.140625-1.03125.210937-1.542968.105469-.753906.210938-1.5.320313-2.234375.078125-.507813.152343-1.007813.230469-1.507813.113281-.722656.230468-1.4375.347656-2.140625.078125-.472656.15625-.945312.238281-1.410156.128906-.734375.261719-1.453125.394531-2.171875.074219-.40625.148438-.820312.226563-1.21875.179687-.914062.359375-1.808594.546875-2.691406.035156-.175782.070312-.363282.109375-.542969.222656-1.042969.453125-2.058594.6875-3.058594.082031-.34375.164062-.675781.246093-1.011719.160157-.65625.316407-1.308593.480469-1.945312.101563-.390625.203125-.769531.304688-1.148438.152343-.570312.304687-1.140624.457031-1.695312.109375-.382812.21875-.761719.328125-1.140625.15625-.539063.3125-1.070313.472656-1.59375.109375-.363281.222657-.722656.332031-1.078125.167969-.535156.339844-1.054688.511719-1.574219.105469-.324219.214844-.652343.320313-.96875.199218-.578125.398437-1.140625.597656-1.699219.085938-.238281.171875-.488281.257812-.722656.289063-.78125.578126-1.546875.875-2.296875.070313-.175781.140626-.339843.210938-.511719.230469-.574218.460938-1.144531.699219-1.695312.113281-.269531.226562-.523438.339843-.785156.195313-.449219.390626-.898438.589844-1.335938.125-.277344.253906-.546875.378906-.816406.191407-.410156.386719-.820312.582032-1.21875.128906-.265625.257812-.53125.386718-.789062.199219-.398438.398438-.792969.601563-1.179688.128906-.246094.253906-.488281.378906-.730469.21875-.410156.441407-.8125.660157-1.210937.113281-.199219.222656-.402344.332031-.601563.304687-.539062.609375-1.066406.917969-1.585937.03125-.046875.058593-.101563.089843-.148438.339844-.570312.683594-1.128906 1.027344-1.675781.101563-.160156.203125-.3125.304687-.46875.242188-.382813.488282-.765625.738282-1.136719.125-.191406.25-.375.375-.5625.226562-.332031.453125-.664062.683594-.992187.128906-.1875.261718-.378907.394531-.5625.109375-.15625.21875-.304688.328125-.453125h32.335937c-10.03125 35.855468-10.59375 65.773437-9.191406 87.828125h-44.179687c.003906-.242188.007812-.492188.015624-.730469zm64.210938.730469c-1.464844-21.625-.980469-51.648438 9.984375-87.828125h53.191406c-4.761719 18.09375-11.574219 51.980468-7.945312 87.828125zm217.109375-87.828125h32.335937c.109376.148437.21875.296875.324219.453125.132813.183593.265625.371093.398438.5625.226562.328125.453125.660156.679687.992187.128906.1875.253906.371094.378906.5625.246094.371094.492188.75.738282 1.136719.101562.15625.203125.308594.304687.46875.34375.546875.6875 1.105469 1.027344 1.675781.03125.046875.058594.101563.089844.148438.308593.519531.613281 1.046875.914062 1.585937.113281.199219.222657.402344.335938.601563.21875.398437.441406.800781.65625 1.210937.128906.242188.253906.484375.382812.730469.199219.386719.402344.78125.601563 1.179688.128906.257812.257812.523437.386718.785156.195313.402344.386719.8125.582032 1.226562.125.269532.25.535156.375.8125.199218.4375.394531.882813.59375 1.335938.113281.257812.226562.515625.339844.78125.234374.554687.464843 1.125.699218 1.695312.066406.175782.140625.339844.207032.515625.296874.746094.589843 1.511719.875 2.296875.089843.234375.171874.480469.257812.71875.203125.5625.402344 1.125.597656 1.703125.109375.316407.214844.644531.324219.96875.167969.519531.339844 1.039063.507813 1.574219.113281.355469.222656.714844.335937 1.078125.15625.523437.316406 1.054687.472656 1.59375.109375.378906.21875.753906.324219 1.140625.15625.554688.308594 1.121094.460938 1.691406.101562.382813.203124.761719.300781 1.148438.164062.636718.324219 1.289062.484375 1.945312.082031.339844.164062.671875.242187 1.015625.234375.996094.464844 2.015625.6875 3.058594.039063.179687.074219.363281.113281.542969.183594.882812.367188 1.777344.542969 2.691406.078125.398438.152344.8125.230469 1.21875.132812.714844.265625 1.433594.394531 2.167969.078125.464843.15625.941406.234375 1.410156.121094.707031.234375 1.421875.351563 2.144531.078125.5.152343 1 .226562 1.507813.113281.734375.21875 1.480469.324219 2.238281.070312.507812.140625 1.015625.207031 1.535156.109375.808594.210938 1.636719.3125 2.46875.058594.484375.117188.960938.175781 1.449219.121094 1.035156.234376 2.097656.347657 3.167969.03125.308594.066406.601562.097656.910156.136719 1.382812.269531 2.796875.394531 4.234375.035156.421875.066406.859375.101563 1.285156.085937 1.039063.167969 2.085938.246093 3.15625.042969.566407.078126 1.148438.117188 1.722657.066406.960937.128906 1.925781.1875 2.910156.035156.628906.070312 1.269531.105469 1.910156.054687.972656.101562 1.960938.148437 2.957031.03125.652344.0625 1.308594.089844 1.96875.042969 1.039063.082031 2.09375.117188 3.15625.023437.648438.046874 1.292969.066406 1.949219.003906.238281.011718.488281.015625.730469h-44.183594c1.40625-22.054688.84375-51.972657-9.1875-87.828125zm-98.269531-67.785156h-70.121094c8.839844-5.835938 16.59375-12.753907 23.050781-20.652344 5.203125-6.367188 13.40625-9.546875 21.949219-8.496094 6.625.808594 13.355469.644531 20.015625-.492188 1.738281-.296874 3.4375-.664062 5.105469-1.082031zm-218.226563 67.785156h32.769531c-.160156.304687-.316406.617187-.476562.925781-.121094.234375-.242188.464844-.363281.699219-.410157.8125-.820313 1.628906-1.214844 2.460937-.042969.089844-.082031.179688-.125.265625-.355469.75-.703125 1.507813-1.042969 2.273438-.050781.113281-.105468.222656-.15625.335937-.066406.152344-.128906.308594-.195312.460938-.28125.640625-.558594 1.289062-.828125 1.941406-.101563.246094-.207031.488281-.308594.734375-.351563.867188-.699219 1.738281-1.039063 2.625-.015624.039062-.035156.082031-.050781.125-.058593.152344-.113281.3125-.167969.464844-.269531.714844-.535156 1.433594-.792968 2.15625-.109375.304687-.214844.613281-.320313.921875-.242187.691406-.476562 1.390625-.710937 2.09375-.058594.1875-.125.371093-.1875.5625-.023438.0625-.042969.132812-.0625.199219-.296875.925781-.589844 1.859374-.871094 2.804687-.082031.273437-.164062.554687-.242188.832031-.210937.710938-.414062 1.429688-.617187 2.15625-.09375.339844-.1875.683594-.28125 1.03125-.210937.773438-.414063 1.558594-.613281 2.347656-.058594.238282-.125.472657-.183594.710938-.246094.996094-.484375 2.003906-.71875 3.023438-.074219.335937-.148438.671874-.226562 1.011718-.164063.742188-.328126 1.496094-.484376 2.253906-.078124.367188-.15625.734376-.230468 1.109376-.191406.925781-.371094 1.863281-.550782 2.8125-.03125.164062-.0625.324218-.09375.488281-.199218 1.078125-.390624 2.171875-.574218 3.273437-.066406.382813-.128906.769532-.191406 1.152344-.128907.804688-.257813 1.613281-.382813 2.433594-.058594.382812-.117187.765625-.171875 1.152344-.167969 1.144531-.332031 2.296874-.488281 3.46875-.027344.203124-.050781.410156-.078125.613281-.128906 1.011719-.253906 2.03125-.375 3.0625-.050782.414062-.097656.832031-.144532 1.246093-.101562.898438-.199218 1.804688-.292968 2.71875-.039063.375-.078125.746094-.117188 1.125-.125 1.25-.242187 2.507813-.351562 3.789063-.027344.289063-.050782.582031-.074219.871094-.085937 1.035156-.167969 2.078125-.246094 3.132812-.035156.433594-.066406.871094-.097656 1.308594-.074219 1.042969-.144531 2.09375-.210937 3.15625-.019532.324219-.039063.644531-.058594.972656-.082032 1.367188-.160156 2.753907-.226563 4.152344-.019531.347656-.03125.703125-.050781 1.054687-.050781 1.097657-.097656 2.207032-.140625 3.328126-.019531.445312-.035156.890624-.050781 1.339843-.046875 1.238281-.085938 2.488281-.121094 3.75-.007812.234375-.015625.460938-.019531.695313-.003907.070312-.003907.136718-.007813.207031h-41.941406c.414062-58.066406 20.355469-81.703125 26.800781-87.832031zm360.515625 229.96875h-99.003906v-51.4375c0-3.171875 2.582031-5.75 5.75-5.75h87.503906c3.167969 0 5.75 2.578125 5.75 5.75zm31.398438 0h-11.398438v-51.4375c0-14.199219-11.550781-25.75-25.75-25.75h-87.503906c-14.195312 0-25.75 11.550781-25.75 25.75v51.4375h-235.179688v-122.140625h385.582032zm33.132812-142.140625h-35.160156c-.003906-.070313-.003906-.136719-.007812-.203125-.003907-.234375-.011719-.464844-.019532-.699219-.035156-1.261719-.074218-2.511719-.121094-3.75-.015624-.445313-.03125-.890625-.050781-1.335937-.042969-1.121094-.089843-2.230469-.140625-3.332032-.015625-.347656-.03125-.703125-.050781-1.050781-.066406-1.402344-.144531-2.785156-.226563-4.152344-.019531-.328125-.039062-.648437-.058593-.976562-.066407-1.058594-.136719-2.113281-.210938-3.152344-.03125-.4375-.0625-.875-.09375-1.3125-.082031-1.050781-.164062-2.09375-.25-3.128906-.023437-.292969-.046875-.585938-.074219-.875-.109374-1.277344-.226562-2.539063-.351562-3.785157-.039062-.378906-.078125-.753906-.117188-1.128906-.09375-.914062-.191406-1.816406-.292968-2.714844-.046875-.417968-.09375-.835937-.144532-1.25-.121093-1.03125-.246093-2.050781-.375-3.058593-.027343-.203125-.050781-.414063-.078124-.613281-.15625-1.171876-.316407-2.324219-.488282-3.472657-.054687-.386719-.113281-.765625-.171875-1.152343-.125-.816407-.253906-1.628907-.382812-2.433594-.0625-.382813-.125-.769532-.1875-1.148438-.1875-1.105468-.378907-2.199218-.578125-3.277344-.03125-.164062-.0625-.324218-.09375-.488281-.179688-.945312-.359375-1.882812-.550782-2.8125-.074218-.371093-.152343-.738281-.230468-1.109375-.15625-.757812-.320313-1.507812-.484375-2.253906-.078125-.335938-.152344-.675781-.226563-1.007812-.234375-1.019532-.472656-2.03125-.71875-3.027344-.058594-.238282-.125-.472656-.183594-.707032-.199218-.792968-.402343-1.574218-.613281-2.347656-.09375-.347656-.1875-.691406-.28125-1.035156-.203125-.726562-.40625-1.441406-.617187-2.15625-.078125-.277344-.160156-.554688-.242188-.828125-.28125-.949219-.574218-1.882813-.871094-2.804687-.019531-.066407-.039062-.136719-.0625-.203126-.0625-.191406-.128906-.371093-.1875-.5625-.234374-.703124-.46875-1.402343-.710937-2.09375-.105469-.304687-.210937-.613281-.320313-.917968-.257812-.726563-.523437-1.445313-.792968-2.15625-.054688-.15625-.109375-.316406-.167969-.46875-.015625-.042969-.035156-.082032-.050781-.125-.339844-.882813-.6875-1.757813-1.039063-2.621094-.101562-.246094-.207031-.492188-.308593-.738281-.269532-.648438-.546876-1.296875-.828126-1.9375-.066406-.15625-.128906-.3125-.195312-.464844-.050781-.113281-.105469-.222656-.15625-.332031-.339844-.765625-.6875-1.523438-1.042969-2.273438-.042969-.089844-.082031-.179687-.125-.265625-.394531-.832031-.804687-1.652343-1.214843-2.464843-.121094-.234376-.242188-.464844-.363282-.695313-.15625-.308594-.316406-.621094-.476562-.929687h25.988281c6.453125 6.140624 26.386719 29.785156 26.800781 87.832031zm-101.015625-155.613281h-85.804687v-39.699219c10.898437-7.554688 18.945312-18.679688 23.152344-32.519531.714843-2.347657 2.628906-4.085938 4.996093-4.53125l57.65625-10.878907zm8.007813-109.492188c-.011719 0-.023438.003906-.03125.003906l-69.335938 13.082032c-9.710937 1.832031-17.539062 8.871093-20.425781 18.371093-3.261719 10.734375-9.6875 18.886719-18.578125 23.863281-.144531.070313-.28125.148438-.421875.226563-4.023437 2.1875-8.539063 3.742187-13.492187 4.589844-4.738282.808593-9.519532.925781-14.210938.351562-15.398438-1.886719-30.304688 3.984375-39.867188 15.695313-11.863281 14.5-29.382812 25.058594-50.660156 30.539062-14.800781 3.804688-28.234375 1.894532-39.925781-5.679687-16.746094-10.84375-29.023437-32.660157-33.6875-59.855469-6.289063-36.691406 3.125-78.667969 48.386719-86.425781 4.300781-.738281 8.574218-1.101563 12.796875-1.101563 14.644531 0 28.691406 4.398438 41.191406 12.984375 13.199219 9.074219 30.355469 9.949219 44.78125 2.273438 4.566406-2.4375 9.507813-4.121094 14.6875-5.007813 16.25-2.789062 30.558594 3.019532 40.304687 16.367188 5.878907 8.042968 15.625 12.105468 25.4375 10.589844l96.492188-14.890626 3.253906 18.984376zm47.980468.753906-.296874-1.742187-6.101563-35.578125 56.8125-14.371094 7.945313 46.3125zm0 0"/><path d="m141.488281 79.945312c-.933593-5.441406-6.097656-9.101562-11.546875-8.164062-5.441406.933594-9.101562 6.101562-8.164062 11.546875l8.234375 48.035156c.835937 4.871094 5.0625 8.3125 9.84375 8.3125.5625 0 1.128906-.046875 1.703125-.144531 5.441406-.933594 9.097656-6.101562 8.164062-11.546875zm0 0"/><path d="m145.480469 382.792969h-54.730469c-11.707031 0-21.230469 9.527343-21.230469 21.234375v29c0 11.707031 9.523438 21.230468 21.230469 21.230468h54.730469c11.710937 0 21.234375-9.523437 21.234375-21.230468v-29c0-11.707032-9.523438-21.234375-21.234375-21.234375zm1.234375 50.234375c0 .679687-.554688 1.230468-1.234375 1.230468h-54.730469c-.679688 0-1.230469-.554687-1.230469-1.230468v-29c0-.679688.554688-1.234375 1.230469-1.234375h54.730469c.679687 0 1.234375.554687 1.234375 1.234375zm0 0"/><path d="m258.886719 382.792969h-54.730469c-11.707031 0-21.230469 9.527343-21.230469 21.234375v29c0 11.707031 9.523438 21.230468 21.230469 21.230468h54.730469c11.707031 0 21.234375-9.523437 21.234375-21.230468v-29c0-11.707032-9.527344-21.234375-21.234375-21.234375zm1.234375 50.234375c0 .679687-.554688 1.230468-1.234375 1.230468h-54.730469c-.679688 0-1.230469-.554687-1.230469-1.230468v-29c0-.679688.550781-1.234375 1.230469-1.234375h54.730469c.679687 0 1.234375.554687 1.234375 1.234375zm0 0"/><path d="m240.417969 88.1875c-1.980469-17.679688-17.949219-30.449219-35.578125-28.476562-8.550782.957031-16.214844 5.199218-21.578125 11.9375-5.355469 6.730468-7.777344 15.148437-6.820313 23.703124.960938 8.558594 5.183594 16.230469 11.898438 21.609376 5.765625 4.621093 12.769531 7.070312 20.042968 7.070312 1.207032 0 2.421876-.066406 3.636719-.203125 17.640625-1.972656 30.378907-17.964844 28.398438-35.640625zm-30.625 15.765625c-3.230469.363281-6.40625-.5625-8.949219-2.597656-2.554688-2.046875-4.160156-4.96875-4.523438-8.230469-.367187-3.257812.554688-6.464844 2.589844-9.023438 2.03125-2.550781 4.925782-4.152343 8.15625-4.515624.453125-.050782.90625-.074219 1.355469-.074219 6.121094 0 11.417969 4.644531 12.121094 10.902343.75 6.714844-4.070313 12.792969-10.75 13.539063zm0 0"/></svg>