<?xml version="1.0"?>
<svg xmlns="http://www.w3.org/2000/svg" id="Outline" viewBox="0 0 512 512" width="512" height="512"><path d="M466.948,207.9a103.394,103.394,0,0,0-64.774-31.4A135.45,135.45,0,0,0,368,119.6V94.246l57.94-14.485a8,8,0,0,0-3.88-15.522l-64,16A8,8,0,0,0,352,88v17.975a136.082,136.082,0,0,0-196.378,39.631A120,120,0,1,0,136,384h18.821a111.978,111.978,0,0,0,202.358,0H392a104,104,0,0,0,74.948-176.1ZM256,432a96,96,0,1,1,96-96A96.108,96.108,0,0,1,256,432Zm136-64H363.334a112,112,0,1,0-214.668,0H136a104,104,0,1,1,22.012-205.652,8,8,0,0,0,8.713-3.972A120.057,120.057,0,0,1,352,126.522v18.854A24,24,0,1,0,368,168V143.943a119.518,119.518,0,0,1,20.241,42.136,8,8,0,0,0,7.425,6A88,88,0,0,1,392,368ZM352,168a8,8,0,1,1-8-8A8.009,8.009,0,0,1,352,168Z"/><path d="M317.072,273.813a8,8,0,0,0-6.641-1.658l-80,16A8,8,0,0,0,224,296v57.376A24,24,0,1,0,240,376V302.559l64-12.8v47.618A24,24,0,1,0,320,360V280A8,8,0,0,0,317.072,273.813ZM216,384a8,8,0,1,1,8-8A8.009,8.009,0,0,1,216,384Zm80-16a8,8,0,1,1,8-8A8.009,8.009,0,0,1,296,368Z"/><path d="M112,176a8,8,0,0,0-8,8v57.376A24,24,0,1,0,120,264V184A8,8,0,0,0,112,176ZM96,272a8,8,0,1,1,8-8A8.009,8.009,0,0,1,96,272Z"/></svg>
