<?xml version="1.0" encoding="iso-8859-1"?>
<!-- Generator: Adobe Illustrator 19.0.0, SVG Export Plug-In . SVG Version: 6.00 Build 0)  -->
<svg version="1.1" id="Capa_1" xmlns="http://www.w3.org/2000/svg" xmlns:xlink="http://www.w3.org/1999/xlink" x="0px" y="0px"
	 viewBox="0 0 512 512" style="enable-background:new 0 0 512 512;" xml:space="preserve">
<g>
	<g>
		<path d="M85.333,51.2c-28.277,0-51.2,22.923-51.2,51.2s22.923,51.2,51.2,51.2s51.2-22.923,51.2-51.2
			C136.503,74.136,113.598,51.231,85.333,51.2z M85.333,136.533c-18.851,0-34.133-15.282-34.133-34.133s15.282-34.133,34.133-34.133
			s34.133,15.282,34.133,34.133C119.448,121.244,104.177,136.515,85.333,136.533z"/>
	</g>
</g>
<g>
	<g>
		<path d="M93.183,99.159c-0.411-1.045-1.02-2.001-1.791-2.817c-2.495-2.342-6.114-3.039-9.3-1.792
			c-1.055,0.392-2.015,1.002-2.817,1.792c-1.561,1.634-2.446,3.799-2.475,6.059c-0.018,1.109,0.183,2.21,0.592,3.242
			c0.5,1.018,1.133,1.966,1.883,2.817c3.365,3.3,8.752,3.3,12.117,0c0.752-0.831,1.358-1.783,1.792-2.817
			C94.094,103.577,94.094,101.224,93.183,99.159z"/>
	</g>
</g>
<g>
	<g>
		<path d="M85.333,358.4c-28.277,0-51.2,22.923-51.2,51.2s22.923,51.2,51.2,51.2s51.2-22.923,51.2-51.2
			C136.503,381.336,113.598,358.431,85.333,358.4z M85.333,443.733c-18.851,0-34.133-15.282-34.133-34.133
			c0-18.851,15.282-34.133,34.133-34.133s34.133,15.282,34.133,34.133C119.448,428.444,104.177,443.715,85.333,443.733z"/>
	</g>
</g>
<g>
	<g>
		<path d="M93.184,406.358c-0.432-1.035-1.038-1.987-1.792-2.817c-3.421-3.158-8.695-3.158-12.117,0
			c-0.772,0.816-1.38,1.772-1.792,2.817c-0.438,1.026-0.67,2.127-0.683,3.242c-0.031,1.119,0.203,2.23,0.683,3.242
			c0.434,1.034,1.04,1.986,1.792,2.817c3.365,3.3,8.752,3.3,12.117,0c0.752-0.831,1.358-1.783,1.792-2.817
			C94.095,410.777,94.095,408.423,93.184,406.358z"/>
	</g>
</g>
<g>
	<g>
		<path d="M85.333,221.867C66.482,221.867,51.2,237.149,51.2,256c0,18.851,15.282,34.133,34.133,34.133
			c18.844-0.019,34.115-15.29,34.133-34.133C119.467,237.149,104.185,221.867,85.333,221.867z M85.333,273.067
			c-9.421-0.012-17.054-7.646-17.067-17.067c0-9.426,7.641-17.067,17.067-17.067S102.4,246.574,102.4,256
			S94.759,273.067,85.333,273.067z"/>
	</g>
</g>
<g>
	<g>
		<path d="M494.933,0H358.4c-9.421,0.012-17.054,7.646-17.067,17.067v42.667H170.667V17.067C170.654,7.646,163.021,0.012,153.6,0
			H17.067C7.646,0.012,0.012,7.646,0,17.067v477.867c0.012,9.421,7.646,17.054,17.067,17.067h145.067
			c4.71,0.003,8.531-3.813,8.533-8.523c0-0.003,0-0.007,0-0.01v-25.6h17.067v17.067c0.012,9.421,7.646,17.054,17.067,17.067h17.067
			c9.421-0.012,17.054-7.646,17.067-17.067v-17.067h34.133v17.067c0.012,9.421,7.646,17.054,17.067,17.067H307.2
			c9.421-0.012,17.054-7.646,17.067-17.067v-17.067h17.067v25.6c-0.003,4.71,3.813,8.531,8.523,8.533c0.003,0,0.007,0,0.01,0
			h145.067c9.421-0.012,17.054-7.646,17.067-17.067V17.067C511.988,7.646,504.354,0.012,494.933,0z M153.6,494.933H17.067V17.067
			H153.6V494.933z M170.667,187.733h17.067V204.8h-17.067V187.733z M170.667,332.8h17.067v17.067h-17.067V332.8z M204.8,494.933
			v-17.067h17.075l0.009,17.067H204.8z M290.133,494.933v-17.067h17.075l0.009,17.067H290.133z M341.333,460.8h-25.6H170.667
			v-93.867h170.667V460.8z M204.8,349.867V332.8h17.067v17.067H204.8z M238.933,349.867V332.8h34.133v17.067H238.933z
			 M290.133,349.867V332.8H307.2v17.067H290.133z M341.333,349.867h-17.067V332.8h17.067V349.867z M341.333,315.733h-25.6H170.667
			v-93.867h170.667V315.733z M204.8,204.8v-17.067h17.067V204.8H204.8z M238.933,204.8v-17.067h34.133V204.8H238.933z
			 M290.133,204.8v-17.067H307.2V204.8H290.133z M341.333,204.8h-17.067v-17.067h17.067V204.8z M341.333,170.667H170.667V76.8
			h170.667V170.667z M494.933,494.933H358.4V17.067h136.533V494.933z"/>
	</g>
</g>
<g>
	<g>
		<path d="M426.667,51.2c-28.277,0-51.2,22.923-51.2,51.2c0.031,28.264,22.936,51.169,51.2,51.2c28.277,0,51.2-22.923,51.2-51.2
			S454.944,51.2,426.667,51.2z M426.667,136.533c-18.851,0-34.133-15.282-34.133-34.133c0.019-18.844,15.29-34.115,34.133-34.133
			c18.851,0,34.133,15.282,34.133,34.133S445.518,136.533,426.667,136.533z"/>
	</g>
</g>
<g>
	<g>
		<path d="M434.516,99.159c-0.412-1.045-1.02-2.001-1.792-2.817c-0.419-0.387-0.877-0.731-1.367-1.025
			c-0.434-0.339-0.925-0.599-1.45-0.767c-0.51-0.259-1.059-0.433-1.625-0.517c-1.633-0.343-3.334-0.162-4.858,0.517
			c-2.143,0.777-3.831,2.465-4.608,4.608c-0.48,1.011-0.714,2.122-0.683,3.241c-0.018,1.109,0.183,2.21,0.592,3.242
			c0.5,1.018,1.133,1.966,1.883,2.817c0.816,0.772,1.772,1.38,2.817,1.792c2.065,0.911,4.418,0.911,6.483,0
			c2.143-0.777,3.831-2.465,4.608-4.608C435.427,103.578,435.427,101.224,434.516,99.159z"/>
	</g>
</g>
<g>
	<g>
		<path d="M426.667,358.4c-28.277,0-51.2,22.923-51.2,51.2c0.031,28.264,22.936,51.169,51.2,51.2c28.277,0,51.2-22.923,51.2-51.2
			S454.944,358.4,426.667,358.4z M426.667,443.733c-18.851,0-34.133-15.282-34.133-34.133c0.019-18.844,15.29-34.115,34.133-34.133
			c18.851,0,34.133,15.282,34.133,34.133C460.8,428.451,445.518,443.733,426.667,443.733z"/>
	</g>
</g>
<g>
	<g>
		<path d="M434.517,406.359c-0.412-1.045-1.02-2.001-1.792-2.817c-3.421-3.158-8.695-3.158-12.117,0
			c-0.772,0.816-1.38,1.772-1.792,2.817c-0.437,1.025-0.669,2.127-0.683,3.241c-0.031,1.119,0.203,2.23,0.683,3.242
			c0.433,1.034,1.039,1.986,1.791,2.817c3.365,3.3,8.752,3.3,12.117,0c0.752-0.831,1.358-1.783,1.792-2.817
			C435.428,410.777,435.428,408.424,434.517,406.359z"/>
	</g>
</g>
<g>
	<g>
		<path d="M426.667,221.867c-18.844,0.019-34.115,15.29-34.133,34.133c0,18.851,15.282,34.133,34.133,34.133
			S460.8,274.851,460.8,256C460.8,237.149,445.518,221.867,426.667,221.867z M426.667,273.067c-9.426,0-17.067-7.641-17.067-17.067
			s7.641-17.067,17.067-17.067c9.421,0.012,17.054,7.646,17.067,17.067C443.733,265.426,436.092,273.067,426.667,273.067z"/>
	</g>
</g>
<g>
	<g>
		<path d="M230.4,93.867h-25.6c-9.421,0.012-17.054,7.646-17.067,17.067v25.6c0.012,9.421,7.646,17.054,17.067,17.067h25.6
			c9.421-0.012,17.054-7.646,17.067-17.067v-25.6C247.454,101.513,239.821,93.879,230.4,93.867z M204.8,136.533v-25.6h25.6
			l0.017,25.6H204.8z"/>
	</g>
</g>
<g>
	<g>
		<path d="M307.2,93.867h-25.6c-9.421,0.012-17.054,7.646-17.067,17.067v25.6c0.012,9.421,7.646,17.054,17.067,17.067h25.6
			c9.421-0.012,17.054-7.646,17.067-17.067v-25.6C324.254,101.513,316.621,93.879,307.2,93.867z M281.6,136.533v-25.6h25.6
			l0.017,25.6H281.6z"/>
	</g>
</g>
<g>
	<g>
		<path d="M315.743,238.933c-0.003,0-0.007,0-0.01,0H196.267c-4.71-0.003-8.531,3.813-8.533,8.523c0,0.003,0,0.007,0,0.01V281.6
			c-0.003,4.71,3.813,8.531,8.523,8.533c0.003,0,0.007,0,0.01,0h17.067c0,4.713,3.82,8.533,8.533,8.533s8.533-3.82,8.533-8.533
			h17.067c0,4.713,3.82,8.533,8.533,8.533s8.533-3.82,8.533-8.533H281.6c0,4.713,3.82,8.533,8.533,8.533s8.533-3.82,8.533-8.533
			h17.067c4.71,0.003,8.531-3.813,8.533-8.523c0-0.003,0-0.007,0-0.01v-34.133C324.269,242.757,320.453,238.936,315.743,238.933z
			 M307.2,273.067H204.8V256h102.4V273.067z"/>
	</g>
</g>
<g>
	<g>
		<path d="M213.333,392.533c0-4.713-3.821-8.533-8.533-8.533s-8.533,3.821-8.533,8.533c-4.713,0-8.533,3.821-8.533,8.533
			s3.82,8.533,8.533,8.533v25.6c0,4.713,3.82,8.533,8.533,8.533s8.533-3.82,8.533-8.533v-25.6c4.713,0,8.533-3.82,8.533-8.533
			S218.046,392.533,213.333,392.533z"/>
	</g>
</g>
<g>
	<g>
		<path d="M315.733,392.533c0-4.713-3.82-8.533-8.533-8.533s-8.533,3.821-8.533,8.533c-4.713,0-8.533,3.821-8.533,8.533
			s3.82,8.533,8.533,8.533v25.6c0,4.713,3.82,8.533,8.533,8.533s8.533-3.82,8.533-8.533v-25.6c4.713,0,8.533-3.82,8.533-8.533
			S320.446,392.533,315.733,392.533z"/>
	</g>
</g>
<g>
	<g>
		<path d="M264.533,418.133v-25.6c0-4.713-3.82-8.533-8.533-8.533s-8.533,3.821-8.533,8.533v25.6c-4.713,0-8.533,3.82-8.533,8.533
			s3.82,8.533,8.533,8.533c0,4.713,3.82,8.533,8.533,8.533s8.533-3.82,8.533-8.533c4.713,0,8.533-3.82,8.533-8.533
			S269.246,418.133,264.533,418.133z"/>
	</g>
</g>
<g>
</g>
<g>
</g>
<g>
</g>
<g>
</g>
<g>
</g>
<g>
</g>
<g>
</g>
<g>
</g>
<g>
</g>
<g>
</g>
<g>
</g>
<g>
</g>
<g>
</g>
<g>
</g>
<g>
</g>
</svg>
