<svg height="480pt" viewBox="0 0 480 480.38751" width="480pt" xmlns="http://www.w3.org/2000/svg"><path d="m392.082031 278.832031c-4.417969 0-8 3.582031-8 8-3.082031 88.492188-68.757812 162.242188-156.300781 175.515625-87.546875 13.277344-172.132812-37.6875-201.3125-121.289062-29.175781-83.601563 5.328125-176.128906 82.121094-220.207032 76.796875-44.082031 174.097656-27.214843 231.570312 40.140626 2.960938 3.292968 8.03125 3.558593 11.320313.601562 3.292969-2.960938 3.5625-8.03125.601562-11.320312-62.609375-73.085938-168.390625-91.21875-251.765625-43.160157-83.378906 48.058594-120.707031 148.683594-88.84375 239.492188 31.863282 90.808593 123.878906 146.046875 219.007813 131.476562 95.125-14.574219 166.386719-94.828125 169.601562-191.007812.066407-2.164063-.75-4.261719-2.257812-5.816407-1.507813-1.550781-3.578125-2.425781-5.742188-2.425781zm0 0"/><path d="m288.082031 268.03125c-.023437-21.160156-13.902343-39.8125-34.167969-45.910156-20.265624-6.097656-42.132812 1.796875-53.832031 19.429687-11.699219-17.632812-33.566406-25.527343-53.832031-19.429687s-34.144531 24.75-34.167969 45.910156c0 52.800781 81.519531 86 85.039063 87.441406 1.902344.757813 4.019531.757813 5.921875 0 3.519531-1.441406 85.039062-34.640625 85.039062-87.441406zm-88 71.359375c-22.558593-9.757813-72-38-72-71.359375 0-17.671875 14.328125-32 32-32s32 14.328125 32 32c0 4.417969 3.582031 8 8 8s8-3.582031 8-8c0-17.671875 14.328125-32 32-32s32 14.328125 32 32c0 37.199219-58.160156 65.199219-72 71.359375zm0 0"/><path d="m200.082031 136.03125c38.214844-.113281 74.886719 15.066406 101.839844 42.160156 3.121094 3.101563 8.160156 3.101563 11.28125 0 3.101563-3.121094 3.101563-8.160156 0-11.277344-29.929687-30.113281-70.664063-46.996093-113.121094-46.882812-4.417969 0-8 3.582031-8 8s3.582031 8 8 8zm0 0"/><path d="m200.082031 176.03125c27.597657-.085938 54.078125 10.890625 73.519531 30.480469 1.503907 1.515625 3.546876 2.367187 5.679688 2.367187s4.179688-.851562 5.679688-2.367187c1.515624-1.5 2.367187-3.546875 2.367187-5.679688 0-2.132812-.851563-4.175781-2.367187-5.679687-22.480469-22.554688-53.035157-35.195313-84.878907-35.121094-4.417969 0-8 3.582031-8 8s3.582031 8 8 8zm0 0"/><path d="m200.082031 424.03125c-38.214843.117188-74.886719-15.066406-101.839843-42.160156-3.175782-2.71875-7.90625-2.535156-10.859376.421875-2.957031 2.953125-3.140624 7.683593-.421874 10.859375 29.925781 30.121094 70.664062 47.003906 113.121093 46.878906 4.417969 0 8-3.582031 8-8s-3.582031-8-8-8zm0 0"/><path d="m200.082031 384.03125c-27.597656.089844-54.078125-10.890625-73.519531-30.480469-3.136719-3.136719-8.222656-3.136719-11.359375 0s-3.136719 8.222657 0 11.363281c22.480469 22.550782 53.035156 35.195313 84.878906 35.117188 4.417969 0 8-3.582031 8-8s-3.582031-8-8-8zm0 0"/><path d="m372.960938 126.273438-12.878907 135.277343-27.121093 47.523438-6.878907-4c-1.84375-1.070313-4.039062-1.359375-6.097656-.804688-2.054687.558594-3.808594 1.910157-4.863281 3.761719l-32 55.441406c-2.171875 3.824219-.847656 8.683594 2.960937 10.878906l27.679688 16c1.210937.71875 2.589843 1.105469 4 1.121094 2.871093.011719 5.527343-1.515625 6.960937-4l32-55.441406c1.0625-1.839844 1.351563-4.027344.800782-6.078125-.597657-2.042969-1.941407-3.78125-3.761719-4.878906l-6.960938-4 28.082031-49.042969c.546876-1.019531.898438-2.128906 1.039063-3.277344l12.800781-137.203125c18.300782-2.621093 32.417969-17.445312 34.148438-35.851562 1.730468-18.40625-9.378906-35.601563-26.867188-41.585938l4.078125-41.359375c.398438-4.417968-2.863281-8.324218-7.28125-8.722656s-8.320312 2.863281-8.71875 7.28125l-3.839843 41.121094c-18.6875 2.261718-33.265626 17.242187-35.019532 35.984375-1.753906 18.738281 9.796875 36.167969 27.738282 41.855469zm-57.917969 246.238281-13.921875-8 24-41.519531 13.921875 8zm93.039062-284.480469c-.039062 10.757812-7.234375 20.171875-17.601562 23.042969l4.160156-44.480469c8.191406 4.011719 13.398437 12.320312 13.441406 21.4375zm-29.359375-23.359375-4.242187 45.359375c-9.46875-4.15625-15.210938-13.910156-14.25-24.210938.964843-10.296874 8.414062-18.820312 18.492187-21.148437zm0 0"/><path d="m472.082031 408.03125h-16v-64c0-4.417969-3.582031-8-8-8h-32c-4.417969 0-8 3.582031-8 8v64h-16c-4.417969 0-8 3.582031-8 8s3.582031 8 8 8h16v48c0 4.417969 3.582031 8 8 8s8-3.582031 8-8v-48h16v48c0 4.417969 3.582031 8 8 8s8-3.582031 8-8v-48h16c4.417969 0 8-3.582031 8-8s-3.582031-8-8-8zm-48 0v-56h16v56zm0 0"/></svg>